<svg width="1440" height="426" viewBox="0 0 1440 426" fill="none" xmlns="http://www.w3.org/2000/svg">
<g clip-path="url(#clip0_19_7)">
<path d="M1194.67 -220.174C1185.98 -185.871 1161.67 -157.211 1125.07 -134.767C1088.46 -112.321 1039.59 -96.1126 981.849 -86.7172C866.369 -67.9269 715.52 -76.4047 556.684 -116.627C397.848 -156.85 261.145 -221.19 168.527 -292.678C122.218 -328.422 86.9491 -365.938 65.4386 -403.101C43.9297 -440.26 36.1923 -477.036 44.8789 -511.339C53.5655 -545.641 77.8735 -574.302 114.476 -596.746C151.081 -619.191 199.955 -635.4 257.695 -644.795C373.175 -663.586 524.024 -655.108 682.86 -614.885C841.696 -574.663 978.399 -510.323 1071.02 -438.835C1117.33 -403.091 1152.6 -365.574 1174.11 -328.412C1195.61 -291.252 1203.35 -254.477 1194.67 -220.174Z" stroke="url(#paint0_linear_19_7)"/>
<path d="M1455.27 -154.18C1442.63 -104.267 1407.27 -62.582 1354.05 -29.9515C1300.83 2.6807 1229.79 26.238 1145.88 39.8918C978.06 67.1989 758.855 54.877 528.054 -3.56948C297.254 -62.0159 98.6036 -155.509 -35.994 -259.399C-103.293 -311.344 -154.56 -365.874 -185.833 -419.902C-217.104 -473.927 -228.367 -527.42 -215.728 -577.333C-203.088 -627.246 -167.722 -668.931 -114.507 -701.561C-61.289 -734.193 9.75163 -757.751 93.663 -771.404C261.484 -798.712 480.689 -786.39 711.49 -727.943C942.29 -669.497 1140.94 -576.004 1275.54 -472.114C1342.84 -420.169 1394.1 -365.639 1425.38 -311.611C1456.65 -257.586 1467.91 -204.092 1455.27 -154.18Z" stroke="url(#paint1_linear_19_7)"/>
<path d="M1772.38 -73.8768C1754.93 -4.96964 1706.11 52.5638 1632.68 97.5894C1559.25 142.617 1461.23 175.116 1345.48 193.951C1113.97 231.622 811.585 214.622 493.217 134.001C174.849 53.3795 -99.1791 -75.5873 -284.858 -218.904C-377.698 -290.563 -448.431 -365.795 -491.582 -440.345C-534.732 -514.893 -550.287 -588.728 -532.837 -657.635C-515.388 -726.543 -466.566 -784.076 -393.136 -829.102C-319.704 -874.129 -221.69 -906.628 -105.933 -925.464C125.578 -963.134 427.959 -946.135 746.327 -865.513C1064.7 -784.892 1338.72 -655.925 1524.4 -512.608C1617.24 -440.949 1687.97 -365.717 1731.13 -291.167C1774.28 -216.62 1789.83 -142.784 1772.38 -73.8768Z" stroke="url(#paint2_linear_19_7)"/>
</g>
<defs>
<linearGradient id="paint0_linear_19_7" x1="84.6959" y1="-531.204" x2="1080.76" y2="-117.975" gradientUnits="userSpaceOnUse">
<stop stop-color="#484848"/>
<stop offset="0.491388" stop-color="#484848" stop-opacity="0.36"/>
<stop offset="1" stop-color="#484848"/>
</linearGradient>
<linearGradient id="paint1_linear_19_7" x1="-157.657" y1="-606.141" x2="1289.55" y2="-5.74734" gradientUnits="userSpaceOnUse">
<stop stop-color="#484848"/>
<stop offset="0.491388" stop-color="#484848" stop-opacity="0.36"/>
<stop offset="1" stop-color="#484848"/>
</linearGradient>
<linearGradient id="paint2_linear_19_7" x1="-452.555" y1="-697.324" x2="1543.61" y2="130.813" gradientUnits="userSpaceOnUse">
<stop stop-color="#484848"/>
<stop offset="0.491388" stop-color="#484848" stop-opacity="0.36"/>
<stop offset="1" stop-color="#484848"/>
</linearGradient>
<clipPath id="clip0_19_7">
<rect width="1440" height="426" fill="white"/>
</clipPath>
</defs>
</svg>
