<svg width="135" height="20" viewBox="0 0 135 20" fill="none" xmlns="http://www.w3.org/2000/svg">
<g opacity="0.3">
<path d="M75.6757 19.1723H79.1381V11.5565H87.463V8.48969H79.1381V3.74184H89.6962V0.681407H75.6757V19.1723Z" fill="white"/>
<path d="M97.5641 0.681407H94.1019V19.1723H105.076V16.1119H97.5641V0.681407Z" fill="white"/>
<path d="M112.807 0.681407H109.345V19.1723H112.807V0.681407Z" fill="white"/>
<path d="M128.575 10.0873H121.411V3.74184H128.575C129.384 3.85552 130.123 4.23834 130.657 4.82062C131.191 5.40291 131.484 6.14597 131.484 6.91456C131.484 7.68315 131.191 8.42619 130.657 9.00847C130.123 9.59076 129.384 9.97359 128.575 10.0873ZM128.575 0.681407H117.948V19.1724H121.411V13.1477H128.575C130.298 13.0958 131.931 12.4163 133.13 11.253C134.33 10.0898 135 8.53391 135 6.91456C135 5.2952 134.33 3.73935 133.13 2.57608C131.931 1.4128 130.298 0.733341 128.575 0.681407Z" fill="white"/>
<path d="M10.5386 16.7471C9.40229 16.7477 8.28242 16.492 7.2732 16.0014C6.26399 15.5108 5.39496 14.7996 4.73922 13.9278C4.08347 13.0559 3.6602 12.0488 3.50501 10.9913C3.34981 9.93374 3.46723 8.85664 3.8474 7.8506C4.22756 6.84457 4.85934 5.93902 5.68959 5.21015C6.51984 4.48128 7.52428 3.95039 8.6184 3.66217C9.71251 3.37394 10.8643 3.3368 11.9769 3.55387C13.0895 3.77094 14.1303 4.23586 15.0118 4.90954L17.1972 2.38805C15.6488 1.20841 13.7765 0.46497 11.797 0.243852C9.81746 0.0227347 7.81176 0.33297 6.01219 1.13864C4.21262 1.94432 2.6928 3.21246 1.62876 4.79619C0.564719 6.37991 0 8.21443 0 10.0873C0 11.9601 0.564719 13.7946 1.62876 15.3783C2.6928 16.962 4.21262 18.2302 6.01219 19.0359C7.81176 19.8415 9.81746 20.1518 11.797 19.9306C13.7765 19.7095 15.6488 18.9661 17.1972 17.7865L15.0118 15.2586C13.7464 16.227 12.1639 16.755 10.5318 16.7535" fill="white"/>
<path d="M47.5665 0.681407H44.1044V19.1723H47.5665V0.681407Z" fill="white"/>
<path d="M66.6615 14.0395L56.1718 0.681407H52.7093V19.1723H56.1718V5.96178L66.6615 19.1723H70.124V0.681407H66.6615V14.0395Z" fill="white"/>
<path d="M29.9126 3.25427C31.2572 3.25624 32.5734 3.61709 33.7081 4.29477C34.8428 4.97245 35.7492 5.93907 36.3217 7.08204C36.8943 8.22501 37.1093 9.49728 36.9419 10.7506C36.7745 12.004 36.2314 13.1869 35.376 14.1615H39.4736C40.4967 12.13 40.7551 9.83244 40.2067 7.64495C39.6582 5.45746 38.3354 3.50977 36.4547 2.12091C34.5741 0.732053 32.2472 -0.015657 29.8551 0.000248618C27.4631 0.0161543 25.1477 0.794745 23.2882 2.20847L25.4667 4.73638C26.7288 3.77214 28.3063 3.2464 29.9331 3.24786" fill="white"/>
<path d="M29.9137 16.5804C28.568 16.581 27.2499 16.2217 26.1135 15.5446C24.977 14.8674 24.0693 13.9003 23.4963 12.7563C22.9232 11.6123 22.7087 10.3388 22.8776 9.08449C23.0466 7.8302 23.5921 6.64699 24.4503 5.67319H20.3528C19.3326 7.70377 19.0759 9.99945 19.6247 12.1849C20.1736 14.3703 21.4954 16.3161 23.3741 17.7041C25.2528 19.0921 27.5772 19.8402 29.9672 19.8261C32.3572 19.8119 34.6714 19.0364 36.5313 17.6262L34.3528 15.0983C33.0916 16.0589 31.5168 16.5822 29.8932 16.5804" fill="white"/>
</g>
</svg>
