<svg width="54" height="50" viewBox="0 0 54 50" fill="none" xmlns="http://www.w3.org/2000/svg">
<path d="M40.4708 0.0718994C34.0714 11.8929 30.5357 17.7878 26.9708 17.7878C23.4058 17.7878 19.8701 11.8929 13.5 0.0718994C19.8701 11.8929 22.9091 18.1309 21.1266 21.4059C19.3442 24.6808 12.7695 25.0239 0 25.0239C13.237 25.0239 19.8117 25.367 21.3019 28.9851C22.7045 32.3536 19.6656 38.5604 13.5 49.976C19.8993 38.1549 23.4351 32.26 27 32.26C30.5649 32.26 34.1007 38.1549 40.5 49.976C33.7208 37.4064 30.7403 31.1684 33.2532 28.0494C35.474 25.3046 42.0195 25.0239 54 25.0239C40.5 25.0239 33.9253 24.6496 32.6104 20.8133C31.4123 17.3824 34.4513 11.2067 40.4708 0.0718994Z" fill="white"/>
</svg>
